<?xml version="1.0" standalone="no"?>
<!DOCTYPE svg PUBLIC "-//W3C//DTD SVG 20010904//EN"
 "http://www.w3.org/TR/2001/REC-SVG-20010904/DTD/svg10.dtd">
<svg version="1.0" xmlns="http://www.w3.org/2000/svg"
 width="900.000000pt" height="900.000000pt" viewBox="0 0 900.000000 900.000000"
 preserveAspectRatio="xMidYMid meet">
<metadata>
Created by potrace 1.14, written by Peter Selinger 2001-2017
</metadata>
<g transform="translate(0.000000,900.000000) scale(0.100000,-0.100000)"
fill="#000000" stroke="none">
<path d="M4336 8789 c-121 -29 -206 -79 -321 -191 -226 -218 -3007 -3006
-3031 -3038 -161 -218 -160 -554 1 -770 14 -19 69 -79 121 -132 l96 -97 237 4
c130 2 296 4 369 5 l133 0 47 45 c26 25 50 45 55 45 4 0 5 5 2 10 -3 6 1 10
10 10 9 0 13 5 10 10 -3 6 0 10 8 10 8 0 24 15 36 33 11 17 21 28 21 23 0 -5
36 27 80 72 43 45 84 82 90 82 5 0 10 5 10 11 0 13 38 49 52 49 4 0 8 8 8 17
0 9 3 13 7 10 3 -4 13 2 21 14 13 19 34 23 33 6 0 -3 6 -22 14 -41 8 -18 11
-36 8 -40 -4 -3 -2 -6 3 -6 5 0 10 -8 11 -17 1 -10 7 -31 14 -48 7 -16 12 -33
11 -36 -1 -4 8 -31 19 -60 18 -49 23 -63 34 -109 2 -8 4 -16 5 -17 2 -2 3 -6
5 -10 1 -5 5 -16 9 -25 4 -9 9 -25 11 -35 2 -10 4 -18 5 -18 1 0 3 -8 5 -18 2
-10 7 -26 11 -35 4 -9 8 -24 10 -33 2 -9 9 -29 15 -45 7 -16 12 -32 11 -35 -1
-4 10 -36 23 -73 13 -36 21 -66 18 -66 -3 0 0 -6 6 -13 6 -8 8 -17 4 -20 -3
-4 -1 -7 5 -7 7 0 11 -3 10 -7 -3 -14 14 -78 26 -92 6 -8 10 -17 9 -20 -1 -3
3 -24 9 -46 6 -22 11 -43 10 -47 -1 -5 2 -8 6 -8 4 0 9 -11 10 -25 1 -14 9
-39 17 -55 9 -16 16 -33 16 -37 2 -28 13 -4 24 53 2 10 4 19 6 19 1 0 3 9 5
20 1 11 12 58 24 105 12 47 23 92 25 100 1 8 8 33 14 55 6 22 12 51 15 65 2
14 5 25 6 25 1 0 3 7 5 15 3 15 31 126 41 165 3 11 7 29 9 40 2 11 8 35 13 53
6 17 9 32 6 32 -3 0 0 8 5 18 5 9 11 31 14 47 3 17 10 45 16 63 5 17 7 32 4
32 -3 0 -1 6 4 13 5 6 9 19 8 27 -1 8 3 24 9 35 5 11 10 31 12 45 1 14 3 25 4
25 1 0 3 7 5 15 2 8 7 26 10 40 4 14 8 34 10 45 2 11 4 20 5 20 1 0 3 8 6 18
2 9 6 25 8 35 3 9 5 17 6 17 1 0 3 9 5 20 2 11 6 31 10 45 3 14 8 36 11 50 3
14 7 32 9 40 2 8 4 15 5 15 1 0 4 11 7 25 7 39 11 55 13 55 2 0 4 10 13 55 4
19 78 318 91 365 2 6 7 28 11 50 12 55 12 55 15 58 2 2 5 15 13 52 3 11 10 38
16 60 5 22 13 54 16 72 3 18 10 45 16 60 6 15 10 28 9 28 -1 0 1 12 5 28 7 24
24 38 26 20 0 -5 2 -17 4 -28 1 -11 6 -42 9 -70 7 -54 11 -81 20 -135 6 -34
11 -69 22 -155 3 -22 7 -51 9 -65 1 -14 5 -38 8 -55 4 -16 8 -50 11 -75 3 -25
8 -56 10 -70 3 -14 7 -45 10 -70 3 -25 8 -55 10 -67 3 -12 7 -48 11 -80 3 -32
8 -65 10 -73 2 -8 6 -35 9 -60 3 -25 8 -56 10 -70 3 -14 7 -43 10 -65 3 -22 7
-56 11 -76 3 -20 8 -51 10 -70 5 -43 15 -116 21 -149 2 -14 7 -45 10 -70 9
-80 11 -85 27 -88 8 -2 19 2 23 9 5 8 3 10 -7 4 -12 -8 -12 -6 0 8 8 10 16 15
18 13 3 -3 85 75 184 173 98 98 181 176 184 173 3 -3 5 2 5 11 0 9 5 19 12 23
7 5 9 2 4 -7 -4 -8 0 -5 8 5 14 17 30 16 32 -2 0 -4 6 -20 12 -35 7 -16 12
-33 12 -38 0 -5 4 -9 10 -9 5 0 7 -7 4 -15 -4 -8 -1 -15 7 -15 7 0 9 -3 6 -7
-4 -3 -2 -12 4 -20 6 -7 8 -13 4 -13 -4 0 -3 -6 2 -12 5 -7 24 -51 42 -98 18
-47 39 -97 47 -111 7 -14 11 -29 7 -33 -3 -3 -1 -6 5 -6 7 0 12 -9 12 -19 0
-11 5 -23 10 -26 6 -3 10 -15 10 -26 0 -10 4 -19 10 -19 5 0 9 -3 8 -7 -3 -15
25 -93 34 -93 4 0 7 -3 7 -8 -1 -4 0 -10 1 -14 1 -5 3 -11 5 -15 5 -21 28 -76
51 -128 10 -22 19 -44 20 -50 1 -5 14 -37 27 -70 25 -59 32 -61 42 -8 2 10 4
19 5 21 2 1 4 7 5 12 1 6 4 12 5 15 1 3 3 8 4 13 1 4 10 34 20 67 10 33 19 65
21 70 1 6 4 17 7 25 11 31 42 136 44 150 4 23 34 121 50 163 8 20 11 37 8 37
-4 0 -1 7 6 15 7 9 10 18 7 22 -4 3 -2 12 4 20 6 7 8 13 4 13 -4 0 -2 6 4 14
6 8 11 18 10 22 -1 5 1 16 4 24 6 14 47 153 52 175 1 6 5 17 8 25 4 8 8 24 10
35 1 11 5 25 8 30 4 6 10 24 14 40 5 17 10 37 12 45 3 8 5 22 7 30 1 9 4 20 8
25 4 8 19 55 22 75 1 3 5 11 10 18 4 7 5 16 2 19 -3 3 1 18 10 34 8 16 12 29
10 29 -3 0 1 15 9 33 7 17 14 37 15 42 2 6 4 15 5 20 2 6 5 19 8 30 3 11 17
61 32 110 14 50 28 97 30 105 2 8 8 28 14 43 6 16 9 33 5 38 -3 5 -1 9 4 9 9
0 24 47 26 79 2 37 42 7 51 -38 5 -28 48 -146 54 -151 3 -3 7 -12 8 -20 1 -8
16 -53 33 -100 18 -47 39 -107 48 -135 9 -27 20 -53 25 -56 5 -3 8 -9 7 -13
-2 -6 3 -25 16 -61 10 -31 34 -94 45 -120 7 -16 13 -32 13 -35 7 -30 82 -226
88 -228 4 -2 6 -7 3 -12 -4 -7 10 -48 45 -135 5 -11 39 -105 77 -210 37 -104
71 -192 75 -193 5 -2 6 -7 3 -11 -2 -4 15 -59 39 -122 24 -63 58 -157 76 -209
18 -52 37 -101 43 -107 5 -7 6 -13 2 -13 -4 0 -2 -6 4 -13 6 -8 8 -17 4 -20
-3 -4 -1 -7 5 -7 7 0 11 -3 10 -7 -2 -10 11 -51 60 -186 l39 -109 21 50 c28
66 40 96 39 102 -1 3 7 19 16 35 14 25 35 72 42 95 1 3 13 31 28 64 15 32 27
60 27 63 0 2 9 23 19 46 39 85 70 158 70 162 0 3 8 19 16 35 8 16 15 31 15 32
-1 3 20 56 45 113 21 50 28 70 27 78 -1 4 3 7 8 7 6 0 10 5 10 10 0 17 92 230
99 230 6 0 18 -17 71 -105 144 -240 204 -335 211 -335 5 0 8 -3 8 -7 -4 -25 3
-24 16 1 8 15 12 32 9 37 -3 5 -1 9 5 9 5 0 15 17 22 38 7 20 18 46 25 57 7
11 14 29 16 40 2 11 5 22 8 25 5 5 40 79 93 200 11 25 30 68 42 95 13 28 33
74 46 104 l22 53 18 -23 c10 -13 19 -27 19 -31 0 -4 14 -31 31 -60 30 -51 56
-97 121 -218 17 -30 34 -60 38 -65 6 -7 105 -10 281 -10 l272 1 121 125 c102
105 128 137 163 209 106 215 93 459 -35 654 -48 72 -3084 3112 -3157 3160 -81
54 -130 75 -221 97 -102 24 -198 23 -308 -2z"/>
<path d="M5069 5521 c-2 -14 -6 -29 -9 -36 -1 -3 -4 -9 -5 -15 -1 -5 -4 -13
-5 -17 -2 -5 -4 -12 -5 -18 -1 -5 -5 -17 -8 -25 -11 -30 -28 -89 -33 -116 -3
-16 -10 -34 -15 -41 -6 -7 -8 -17 -5 -22 4 -5 2 -12 -3 -15 -4 -3 -12 -20 -16
-38 -4 -18 -9 -37 -11 -43 -1 -5 -5 -21 -8 -35 -3 -14 -10 -36 -15 -50 -5 -14
-17 -52 -26 -85 -9 -33 -21 -71 -25 -85 -10 -28 -32 -112 -32 -120 0 -3 -4
-11 -10 -17 -6 -7 -8 -13 -4 -13 4 0 0 -12 -7 -27 -8 -16 -13 -36 -12 -45 2
-10 -1 -18 -6 -18 -6 0 -9 -6 -8 -12 2 -7 -11 -58 -28 -113 -45 -143 -57 -188
-56 -202 0 -7 -3 -13 -7 -13 -6 0 -21 -53 -21 -75 0 -2 -6 -20 -15 -40 -8 -19
-12 -35 -10 -35 3 0 -1 -15 -9 -34 -8 -18 -16 -44 -19 -57 -2 -13 -12 -44 -20
-68 -9 -24 -14 -46 -12 -49 3 -2 -1 -17 -9 -32 -8 -15 -17 -40 -20 -56 -9 -45
-46 -165 -53 -174 -4 -5 -21 21 -19 30 0 3 -6 16 -13 30 -8 14 -15 28 -16 33
-1 4 -3 9 -4 12 -1 3 -3 8 -4 13 -1 4 -7 17 -14 30 -7 12 -9 22 -5 22 4 0 2 4
-5 9 -7 4 -14 14 -15 22 -2 8 -6 20 -10 27 -5 6 -6 12 -2 12 3 0 -2 15 -12 33
-9 17 -18 35 -19 40 -1 4 -2 8 -4 10 -1 1 -3 11 -5 21 -2 10 -7 22 -12 25 -4
3 -9 15 -11 25 -2 11 -10 29 -19 42 -8 13 -14 24 -13 26 2 4 -8 31 -69 181
-28 68 -51 129 -51 135 0 7 -4 12 -10 12 -5 0 -9 3 -8 8 1 4 -4 23 -11 42 -8
19 -15 41 -17 49 -1 8 -9 18 -16 22 -7 5 -9 9 -4 9 5 0 4 6 -2 13 -6 6 -10 14
-11 17 0 12 -17 58 -45 122 -9 20 -16 41 -16 47 0 6 -7 8 -15 5 -8 -4 -15 -13
-15 -21 0 -8 -4 -11 -10 -8 -5 3 -10 -2 -10 -11 0 -10 -3 -15 -6 -11 -8 8 -33
-16 -27 -25 2 -5 -1 -8 -8 -8 -6 0 -44 -33 -84 -74 -40 -41 -76 -72 -79 -69
-3 4 -6 2 -6 -4 0 -14 -128 -142 -135 -135 -3 3 -5 -2 -5 -11 0 -9 -5 -19 -12
-23 -7 -5 -8 -3 -3 7 5 8 -7 -2 -26 -21 -19 -19 -33 -38 -32 -41 1 -3 -9 -11
-22 -17 -19 -9 -25 -9 -26 1 -5 42 -18 130 -23 154 -2 12 -7 46 -10 75 -4 29
-8 64 -11 78 -3 14 -7 43 -10 65 -6 59 -18 142 -41 280 -3 22 -8 56 -9 75 -2
19 -4 35 -5 35 -1 0 -3 14 -5 30 -1 17 -6 48 -10 70 -5 22 -9 56 -10 75 -2 19
-4 35 -5 35 -1 0 -4 14 -6 30 -2 17 -6 50 -10 75 -3 25 -7 54 -9 65 -4 34 -5
35 -13 35 -9 0 -10 -7 -13 -55 -1 -14 -4 -25 -8 -25 -4 0 -7 -8 -8 -17 -2 -27
-10 -62 -28 -123 -9 -30 -18 -66 -20 -80 -2 -14 -13 -58 -23 -98 -11 -40 -21
-76 -21 -80 -1 -4 -6 -23 -11 -42 -5 -19 -12 -48 -15 -65 -8 -38 -13 -59 -15
-62 -2 -2 -4 -12 -5 -23 -1 -11 -4 -22 -5 -25 -4 -8 -8 -23 -46 -175 -14 -58
-30 -125 -35 -149 -5 -23 -14 -62 -21 -85 -6 -22 -13 -48 -14 -56 -4 -22 -12
-55 -14 -57 -6 -7 -24 -106 -22 -115 1 -5 -3 -8 -10 -8 -6 0 -9 -3 -5 -6 3 -3
-1 -26 -8 -51 -8 -26 -14 -49 -13 -52 0 -3 0 -8 -2 -11 -1 -3 -4 -16 -7 -30
-7 -38 -11 -55 -13 -57 -3 -3 -3 -3 -15 -58 -4 -22 -10 -44 -11 -50 -3 -8 -36
-141 -50 -197 -2 -10 -6 -27 -9 -38 -3 -11 -7 -29 -10 -40 -14 -57 -20 -80
-29 -125 -2 -11 -9 -33 -16 -50 -6 -16 -11 -32 -11 -35 1 -3 -5 -5 -11 -5 -7
0 -13 5 -14 10 -2 22 -17 71 -27 83 -5 6 -7 12 -3 12 3 0 -1 17 -8 38 -8 20
-24 69 -36 107 -11 39 -22 75 -24 80 -2 6 -4 12 -4 15 0 3 -7 23 -15 45 -9 22
-25 72 -37 110 -11 39 -24 77 -27 85 -3 8 -5 21 -4 28 1 6 -2 12 -6 12 -5 0
-10 12 -11 26 -1 14 -5 31 -9 37 -4 7 -8 15 -9 20 -1 4 -2 8 -4 10 -1 1 -3 9
-5 18 -1 9 -12 43 -23 75 -10 33 -30 93 -42 134 -13 41 -26 80 -29 85 -3 6 -6
12 -6 15 -4 22 -19 77 -24 85 -3 6 -6 13 -7 18 -1 4 -2 8 -3 10 -2 1 -4 12 -6
23 -3 12 -10 34 -16 50 -7 16 -13 34 -13 39 -1 10 -22 77 -33 105 -4 8 -5 18
-5 23 5 22 -27 -1 -94 -68 -41 -41 -74 -71 -75 -67 0 4 -4 -3 -10 -16 -5 -13
-13 -20 -19 -17 -5 3 -10 0 -10 -7 0 -7 -13 -22 -29 -33 -16 -10 -27 -23 -25
-27 3 -4 1 -8 -3 -8 -5 0 -18 -7 -29 -16 -10 -8 -12 -13 -4 -9 8 3 6 0 -4 -7
-10 -7 -28 -23 -39 -35 -19 -21 -27 -22 -261 -24 -132 -1 -309 -1 -392 0
l-151 1 -112 -117 c-146 -153 -134 -138 -174 -218 -56 -111 -71 -175 -71 -300
0 -146 23 -224 110 -372 10 -18 721 -734 1579 -1591 1520 -1519 1562 -1559
1635 -1595 101 -48 178 -68 281 -72 76 -3 110 1 198 21 43 9 146 55 158 70 6
9 14 15 17 14 4 0 20 7 36 16 15 10 726 715 1578 1568 1095 1097 1557 1565
1575 1599 68 125 92 216 91 347 -1 197 -62 327 -235 505 l-107 109 -313 -2
c-172 -2 -316 -5 -321 -8 -4 -3 -8 -1 -8 5 0 5 -29 62 -64 126 l-64 116 -25
-53 c-14 -29 -50 -109 -80 -178 -30 -69 -64 -147 -77 -175 -46 -100 -59 -135
-52 -135 4 0 2 -4 -3 -8 -6 -4 -21 -31 -34 -59 -14 -29 -31 -53 -38 -53 -8 0
-11 5 -8 10 3 6 2 10 -3 10 -6 0 -13 11 -16 25 -4 14 -11 25 -16 25 -6 0 -10
5 -10 10 0 9 -35 67 -158 265 -17 28 -39 65 -48 83 -14 28 -37 45 -32 25 1 -8
-17 -52 -54 -133 -12 -25 -21 -51 -21 -57 0 -7 -5 -13 -10 -13 -5 0 -7 -6 -4
-14 3 -8 2 -16 -2 -18 -7 -3 -111 -241 -114 -263 -1 -5 -5 -12 -8 -15 -4 -4
-52 -116 -55 -130 -2 -9 -54 -124 -64 -143 -6 -10 -8 -22 -5 -27 4 -6 2 -10
-2 -10 -9 0 -39 -69 -35 -82 1 -5 -2 -8 -6 -8 -4 0 -14 -17 -21 -37 -7 -21
-23 -60 -36 -88 -12 -27 -30 -71 -41 -97 -20 -51 -39 -62 -41 -26 -1 13 -6 32
-12 43 -5 11 -18 45 -29 75 -11 30 -23 64 -28 75 -4 11 -9 29 -11 39 -2 11 -7
24 -12 30 -4 6 -20 45 -34 86 -29 84 -75 212 -136 375 -22 61 -41 116 -41 123
0 6 -5 12 -11 12 -5 0 -8 3 -6 8 3 4 0 18 -6 32 -5 14 -11 30 -12 37 -4 17
-75 206 -83 217 -3 6 -7 17 -8 26 -2 17 -142 398 -152 414 -3 6 -7 17 -8 26
-3 24 -38 114 -47 121 -5 3 -8 9 -7 13 2 6 -11 54 -20 71 -1 3 -3 8 -4 13 -11
41 -31 92 -36 92 -4 0 -7 6 -8 13 -2 32 -33 119 -45 128 -5 3 -8 9 -8 13 2 18
-13 66 -20 66 -5 0 -6 7 -3 15 4 8 1 15 -5 15 -6 0 -8 6 -5 14 3 8 0 17 -5 21
-6 3 -9 10 -6 15 3 5 1 11 -5 15 -5 3 -11 1 -11 -4z"/>
</g>
</svg>
